<svg xmlns="http://www.w3.org/2000/svg" version="1.1" xmlns:xlink="http://www.w3.org/1999/xlink" xmlns:svgjs="http://svgjs.dev/svgjs" viewBox="0 0 600 600" opacity="0.55"><path d="M610.6020721914877 128.01048031152772C603.0104584219564 114.92147325179464 585.733007860433 122.90575924219178 569.7644257071127 124.0837682753949C553.7958435537923 125.26177730859803 528.2722585521648 132.06806189518656 514.7905792715658 135.07853451074647C501.30889999096684 138.08900712630637 498.29843246166996 137.172780421391 488.8743500235189 142.14660396875428C479.45026758536784 147.12042751611756 467.8010569733887 155.10472367904075 458.2460846426595 164.92147579492615C448.69111231193034 174.73822791081156 439.1361399812012 189.00523383122172 431.5445160391439 201.04711666406678C423.9528920970866 213.08899949691184 418.1937266511231 224.6073278457074 412.6963409903158 237.17277279199647C407.19895532950846 249.73821773828553 400.3926656566569 266.23036200504987 398.56020207430015 276.43978634180115C396.7277384919434 286.64921067855244 399.3455363435059 289.26701615950947 401.70155949617515 298.4293188125043C404.0575826488444 307.5916214654991 407.9842946849772 321.59685014388447 412.6963409903158 331.4136022597699C417.40838729565434 341.23035437565534 424.2146769685059 348.8219783177126 429.9738373282064 357.3298315078168C435.7329976879069 365.83768469792096 441.099473111084 371.8586248427777 447.2513031485189 382.4607214003949C453.4031331859538 393.0628179580121 463.8743449372559 409.42408504785584 466.8848175528158 420.9424108535199C469.89529016837565 432.46073665918397 467.80105188712565 443.45549272200947 465.3141388418783 451.5706762343793C462.8272257966309 459.6858597467491 458.1151693187663 462.9581172337282 451.9633392813314 469.63351192773865C445.8115092438965 476.3089066217491 434.42409876212565 484.8167648981163 428.4031586172689 491.6230443984418C422.38221847241215 498.4293238987673 417.9319417797038 503.5340144505251 415.8376984121908 510.4711889296915C413.7434550446778 517.4083634088582 412.958115689209 524.3455684056031 415.8376984121908 533.2460912734415C418.7172811351725 542.1466141412801 427.3560343903809 556.9371516575562 433.1151947500814 563.8743261367227C438.8743551097819 570.8115006158895 440.7067983470866 571.2042109837281 450.3926605703939 574.8691381484415C460.0785227937012 578.5340653131551 474.21466170971684 583.3769811660196 491.23036808992515 585.863889125004C508.24607447013346 588.3507970839884 532.853394619873 588.3507970839884 552.4868988516439 589.7905859023477C572.1204030834148 591.2303747207071 599.2146413646648 605.3664932916707 609.0313934805502 594.5026220351602C618.8481455964355 583.63875077865 610.7329620840658 551.8324916233765 611.3874115469564 524.6073583632852C612.041861009847 497.3822251031944 613.2198700430502 463.4816717177777 612.9580902578939 431.15182247461365C612.6963104727377 398.8219732314496 609.4240631582845 368.7172648777712 609.8167328360189 330.62826290430115C610.2094025137533 292.5392609308311 615.183218431722 236.38744106592225 615.3141083243002 202.61781063379334C615.4449982168783 168.84818020166443 618.1936859610189 141.09948737126078 610.6020721914877 128.01048031152772C603.0104584219564 114.92147325179464 585.733007860433 122.90575924219178 569.7644257071127 124.0837682753949 " fill="hsl(340, 45%, 50%)"></path></svg>