<svg xmlns="http://www.w3.org/2000/svg" version="1.1" xmlns:xlink="http://www.w3.org/1999/xlink" xmlns:svgjs="http://svgjs.dev/svgjs" viewBox="0 0 600 600" opacity="0.55"><path d="M-23.952879900705966 400.52356457585506C-24.60733015832519 428.9267068691493 -37.56544565655008 456.0209604091884 -27.09424113727823 465.7068226324957C-16.62303661800638 475.392684855803 15.314138814834607 463.8743437913499 38.87434721492514 458.6387379156988C62.43455561501567 453.40313204004775 94.10994164648439 446.335072754566 114.26700926326498 434.29318737858944C134.4240768800456 422.2513020026129 150.39266793432617 403.40313204004775 159.81675291560873 386.38742565983944C169.2408378968913 369.3717192796311 170.2879595806478 351.0471139736415 170.8115191509603 332.19894909733944C171.3350787212728 313.3507842210374 165.96858295304364 291.2303720302821 162.95811033748373 273.29843640202694C159.94763772192383 255.36650077377175 154.7120343894043 242.93194317692928 152.74868345760092 224.6073353278082C150.78533252579754 206.2827274786871 147.643972560791 182.3298466193121 151.17800474666342 163.35078930730037C154.71203693253582 144.37173199528866 166.49214252335614 125.00000754867406 173.9528765728353 110.73299145573787C181.41361062231445 96.46597536280167 187.0418861756999 88.35078803573462 195.94240904353842 77.74869274968319C204.84293191137695 67.14659746363175 218.8481605897624 57.198953547819585 227.35601377986654 47.12041973942928C235.86386696997073 37.04188593103898 241.88481728735354 26.43979334706478 246.98952818416342 17.27748989934139C252.0942390809733 8.115186451618001 264.5287814190267 -2.4869086754877117 257.9842791607259 -7.8534009469110515C251.43977690242514 -13.219893218334391 231.54450305802408 -13.874343317007892 207.72251463435873 -14.92146372919865C183.90052621069336 -15.968584141389403 142.40837049983725 -14.00523336853174 115.05234861873373 -14.136123420055583C87.69632673763022 -14.267013471579425 66.09947109721884 -15.57591398681787 43.58638334773764 -15.706804038341716C21.073295598256436 -15.837694089865561 -8.638743951889033 -28.40313903615462 -20.026177878153476 -14.92146372919865C-31.41361180441792 -1.4397884222426782 -24.738220209849032 33.24607491368465 -24.738220209849032 65.18324780339412C-24.738220209849032 97.1204206931036 -20.287957981201163 138.35078676416887 -20.026177878153476 176.7015736090582C-19.764397775105785 215.0523604539475 -22.513089254470817 257.98430371159725 -23.1675395915629 295.28796887273006C-23.821989928654983 332.5916340338629 -23.298429643086745 372.1204222825608 -23.952879900705966 400.52356457585506C-24.60733015832519 428.9267068691493 -37.56544565655008 456.0209604091884 -27.09424113727823 465.7068226324957 " fill="hsl(340, 45%, 50%)"></path></svg>