<svg xmlns="http://www.w3.org/2000/svg" version="1.1" xmlns:xlink="http://www.w3.org/1999/xlink" xmlns:svgjs="http://svgjs.dev/svgjs" viewBox="0 0 600 600"><path d="M42.01570510864258,59.68586349487305C39.00523249308268,41.623036225636795,68.84816805521646,15.837696075439453,126.047119140625,10.209424018859863C183.24607022603354,4.581151962280273,362.4345397949219,13.481675624847412,385.20941162109375,25.916231155395508C407.9842834472656,38.3507866859436,272.5131022135417,66.36125977834065,262.69635009765625,84.81675720214844C252.87959798177084,103.27225462595622,280.4973856608073,126.30890146891277,326.30889892578125,136.6492156982422C372.1204121907552,146.98952992757162,498.95286051432294,133.37696838378906,537.5654296875,146.858642578125C576.1779988606771,160.34031677246094,579.3193918863932,200.78533426920572,557.9843139648438,217.5392608642578C536.6492360432943,234.2931874593099,409.9476318359375,237.04188791910806,409.5549621582031,247.3822021484375C409.16229248046875,257.7225163777669,555.7591857910156,263.2198893229167,555.6282958984375,279.5811462402344C555.4974060058594,295.94240315755206,460.20941670735675,333.90052795410156,408.7696228027344,345.54974365234375C357.329828898112,357.19895935058594,294.764399210612,349.3455505371094,246.98953247070312,349.4764404296875C199.21466573079428,349.6073303222656,131.0209477742513,360.34031677246094,122.12042236328125,346.3350830078125C113.2198969523112,332.32984924316406,211.51831769943237,295.28797149658203,193.5863800048828,265.4450378417969C175.65444231033325,235.60210418701172,22.774867057800293,191.75392278035483,14.528796195983887,167.27748107910156C6.2827253341674805,142.8010393778483,139.52880334854126,136.51832389831543,144.10995483398438,118.58638763427734C148.6911063194275,100.65445137023926,45.026177724202476,77.7486907641093,42.01570510864258,59.68586349487305C39.00523249308268,41.623036225636795,68.84816805521646,15.837696075439453,126.047119140625,10.209424018859863" fill="hsl(259, 45%, 13%)"></path></svg>