<!--?xml version="1.0" standalone="no"?-->
              <svg id="sw-js-blob-svg" viewBox="0 0 100 100" xmlns="http://www.w3.org/2000/svg" version="1.1">
                    <defs> 
                        <linearGradient id="sw-gradient" x1="0" x2="1" y1="1" y2="0">
                            <stop id="stop1" stop-color="rgba(22, 14, 39, 0.1)" offset="0%"></stop>
                            <stop id="stop2" stop-color="rgba(130, 114, 231, 0.075)" offset="100%"></stop>
                        </linearGradient>
                    </defs>
                <path fill="url(#sw-gradient)" d="M7.9,-11.8C13.2,-10.7,22.4,-14.5,23.2,-13.3C24,-12.2,16.4,-6.1,14,-1.4C11.5,3.2,14.2,6.5,14.2,9C14.2,11.6,11.5,13.4,8.7,18C5.9,22.6,2.9,30,-1.5,32.6C-5.9,35.2,-11.9,33,-19,30.9C-26.1,28.8,-34.4,26.7,-35.2,21.6C-35.9,16.4,-29.2,8.2,-28.5,0.4C-27.8,-7.4,-33.1,-14.8,-32,-19.4C-30.9,-24,-23.5,-25.9,-17.1,-26.4C-10.7,-26.9,-5.3,-26,-2,-22.5C1.3,-19,2.7,-13,7.9,-11.8Z" width="100%" height="100%" transform="translate(50 50)" stroke-width="0" style="transition: all 0.3s ease 0s;" stroke="url(#sw-gradient)"></path>
              </svg>