<svg xmlns="http://www.w3.org/2000/svg" version="1.1" xmlns:xlink="http://www.w3.org/1999/xlink" xmlns:svgjs="http://svgjs.dev/svgjs" viewBox="0 0 600 600" opacity="0.55"><path d="M-120.54973447135887 166.49214946224805C-123.16753558130861 155.49738577002796 -122.64397537521324 142.2774888177168 -117.40837323478661 130.36649333431836C-112.17277109435997 118.45549785092011 -94.3717237692257 110.2094231744064 -89.13612162879906 95.02617656185755C-83.90051948837242 79.84292994930873 -85.60209007870955 54.45025963579147 -85.9947603922268 39.26701365902552C-86.38743070574404 24.083767682259577 -93.58638433428409 16.361255437081354 -91.49214350990258 3.9267007012618507C-89.39790268552107 -8.507854034557646 -86.12565028480492 -26.308901200746206 -73.42931544593773 -35.34031475589147C-60.732980607070544 -44.37172831103673 -37.56544418942731 -47.513089547609 -15.31413447669945 -50.26178062960973C6.937175236028423 -53.010471711610464 39.26702320762672 -52.61780155703893 60.078542830429456 -51.832461247895864C80.89006245323219 -51.0471209387528 98.29843978274064 -51.701571196372015 109.55498326011696 -45.54973877475133C120.81152673749327 -39.39790635313065 125.65445276288389 -24.738220582460073 127.61780369468727 -14.921466718171743C129.58115462649064 -5.104712853883413 126.5706896403253 3.9267000654789754 121.33508885093727 13.350784410978648C116.09948806154924 22.774868756478327 101.43980229087867 30.759164283618617 96.20419895835914 41.623039354826304C90.96859562583961 52.48691442603399 89.92146885582008 66.88482168311407 89.92146885582008 78.53403483822474C89.92146885582008 90.18324799333543 95.4188596028904 102.87957520280808 96.20419895835914 111.51831828549031C96.9895383138279 120.15706136817262 98.69109674481749 122.64397949968317 94.63350498863258 130.36649333431836C90.57591323244768 138.08900716895374 80.36650161135393 149.99999756608918 71.85864842124977 157.85340129330274C63.35079523114561 165.70680502051624 59.68586298016905 171.59686290218946 43.58638584800758 177.4869156975996C27.486908715846113 183.37696849300977 -8.769628403701404 190.3141378859134 -24.738214371718982 193.19371806576368C-40.70680033973656 196.0732982456139 -39.39790459286969 194.24083720638868 -52.22512996009789 194.76439677670118C-65.05235532732607 195.28795634701368 -90.31413248987795 201.04711670671418 -101.70156657508812 196.33507548763868C-113.0890006602983 191.62303426856312 -117.93193336140914 177.48691315446808 -120.54973447135887 166.49214946224805C-123.16753558130861 155.49738577002796 -122.64397537521324 142.2774888177168 -117.40837323478661 130.36649333431836 " fill="url(&quot;#SvgjsLinearGradient1000&quot;)" stroke-width="1" stroke="hsl(236, 73%, 63%)" stroke-opacity="0.55"></path><path d="M455.1046923985464 164.92146921157087C452.48689128859667 153.9267055193508 453.010451494692 140.70680856703962 458.24605363511864 128.79581308364118C463.4816557755453 116.88481760024274 481.28270310067956 108.63874292372907 486.5183052411062 93.45549631118024C491.7539073815328 78.27224969863141 490.05233679119567 52.879579385114155 489.65966647767846 37.69633340834821C489.26699616416124 22.513087431582264 482.06804253562115 14.790575186404041 484.1622833600027 2.3560204505845377C486.25652418438415 -10.078534285234959 489.52877658510033 -27.87958145142352 502.2251114239675 -36.91099500656878C514.9214462628347 -45.942408561714046 538.088982680478 -49.08376979828631 560.3402923932058 -51.832460880287044C582.5916021059337 -54.58115196228778 614.921450077532 -54.188481807716244 635.7329697003347 -53.40314149857318C656.5444893231374 -52.61780118943011 673.9528666526459 -53.27225144704933 685.2094101300222 -47.120419025428646C696.4659536073985 -40.968586603807964 701.3088796327892 -26.308900833137386 703.2722305645925 -16.492146968849056C705.2355814963959 -6.675393104560726 702.2251165102306 2.3560198148016624 696.9895157208425 11.780104160301335C691.7539149314545 21.204188505801014 677.0942291607839 29.188484032941304 671.8586258282644 40.05235910414899C666.6230224957449 50.91623417535668 665.5758957257253 65.31414143243676 665.5758957257253 76.96335458754743C665.5758957257253 88.61256774265811 671.0732864727956 101.30889495213077 671.8586258282644 109.94763803481305C672.6439651837331 118.58638111749534 674.3455236147228 121.07329924900577 670.2879318585378 128.79581308364118C666.2303401023529 136.51832691827659 656.0209284812591 148.42931731541202 647.513075291155 156.28272104262555C639.0052221010509 164.13612476983909 635.3402898500743 170.02618265151227 619.2408127179128 175.91623544692243C603.1413355857513 181.80628824233258 566.8847984662038 188.74345763523624 550.9162124981863 191.6230378150865C534.9476265301687 194.50261799493674 536.2565222770356 192.6701569557115 523.4292969098074 193.193716526024C510.6020715425792 193.7172760963365 485.34029438002733 199.476436456037 473.9528602948171 194.7643952369615C462.5654262096069 190.05235401788596 457.7224935084961 175.91623290379093 455.1046923985464 164.92146921157087C452.48689128859667 153.9267055193508 453.010451494692 140.70680856703962 458.24605363511864 128.79581308364118 " fill-opacity="1" fill="url(&quot;#SvgjsLinearGradient1001&quot;)" opacity="1" stroke-opacity="0.75" stroke-width="1" stroke="hsl(236, 73%, 63%)" transform="matrix(1,0,0,1,75,75)"></path><defs><linearGradient id="SvgjsLinearGradient1000" gradientTransform="rotate(181, 0.5, 0.5)"><stop stop-color="hsl(259, 47%, 10%)" offset="0"></stop><stop stop-color="hsl(248, 71%, 68%)" offset="1"></stop></linearGradient><linearGradient id="SvgjsLinearGradient1001" gradientTransform="rotate(17, 0.5, 0.5)"><stop stop-color="hsl(259, 47%, 10%)" offset="0"></stop><stop stop-color="hsl(248, 71%, 68%)" offset="1"></stop></linearGradient></defs></svg>