<svg xmlns="http://www.w3.org/2000/svg" version="1.1" xmlns:xlink="http://www.w3.org/1999/xlink" xmlns:svgjs="http://svgjs.dev/svgjs" viewBox="0 0 600 600"><path d="M177.7673943090615 542.5205594120343C138.63126882395918 460.7142776864704 44.12864661695335 127.72998756348343 34.835452799814675 52.468208414110066C25.542258982676003 -22.7935707352633 85.62079620839927 79.16977924286577 122.00823140622947 90.94988451579464C158.39566660405967 102.72998978872351 213.50037948769105 114.77187738994014 253.16006398679588 123.14884005168331C292.8197484859007 131.52580271342646 326.72026499591044 135.7142786401436 359.9663384008584 141.21166048625395C393.2124118058063 146.70904233236445 430.5160871394651 151.55197980184715 452.6365044164834 156.1331311283446C474.7569216935016 160.71428245484202 482.08675059161357 160.05982409099107 492.68884206296775 168.69856844523912C503.29093353432194 177.33731279948717 524.3642316707152 197.23261080363756 516.2490532446084 207.96559725383287C508.13387481850157 218.69858370402818 463.3694959529417 227.46821667928862 443.9977715063271 233.096487146411C424.62604705971256 238.72475761353343 419.12865631264225 239.2483095544514 400.0187065649209 241.73522005656724C380.9087568171995 244.22213055868315 359.05011678220603 246.3163790124592 329.338073019999 248.0179501591063C299.62602925779197 249.71952130575346 246.48466420652244 249.9812960046467 221.7464439916787 251.94464693645006C197.00822377683494 253.90799786825346 187.19147420408103 253.6462231693602 180.9087517309365 259.7980557499266C174.62602925779197 265.949888330493 173.44801513832581 279.82422965943186 184.0501091528115 288.85564241984855C194.6522031672972 297.8870551802652 220.04487538816306 306.2640184777912 244.52131581785056 313.9865323124267C268.99775624753806 321.70904614706205 301.58937764646384 327.86088127075993 330.9087517309365 335.19072542766105C360.22812581540916 342.52056958456205 391.51085846107975 349.4577440637287 420.4375603246865 357.9655972538329C449.36426218829325 366.47345044393705 482.6103254207151 377.46821159302556 504.4689629125771 386.23784456828605C526.3276004044392 395.00747754354643 542.819752300598 402.99177116333806 551.5893852758584 410.5833951053954C560.3590182511188 418.1750190474527 562.4532514461058 424.85041374146306 557.0867607641396 431.7875882206298C551.7202700821734 438.72476269979643 535.8825879939573 447.1017310835855 519.3904411840615 452.2064419803954C502.8982943741657 457.31115287720525 476.7202700821735 459.5362759647704 458.1338799047646 462.4158536014892C439.54748972735575 465.2954312382079 413.8930402644651 464.77186658163237 407.8721001196084 469.4839078007079C401.8511599747516 474.19594901978337 415.72551401934794 484.27448600708806 422.008239035624 490.6881009159423C428.29096405190006 497.10171582479643 442.4270927953896 502.3373267867105 445.5684502172646 507.9655972538329C448.7098076391396 513.5938677209556 452.37470937253806 519.2221229292891 440.856383566874 524.4577237186766C429.33805776120994 529.693324508064 404.99252502602116 536.2378394820214 376.45849538328025 539.3792019901593C347.92446574053935 542.5205644982973 302.7673892227985 542.7823391971906 269.6522057104287 543.3058987675031C236.5370221980589 543.8294583378156 216.90351979416383 624.3268411375998 177.7673943090615 542.5205594120343C138.63126882395918 460.7142776864704 44.12864661695335 127.72998756348343 34.835452799814675 52.468208414110066 " fill="url(&quot;#SvgjsLinearGradient1004&quot;)" transform="matrix(1.05,0,0,1.05,-13.9497477531433,-14.169995021820057)" fill-opacity="0.16"></path><defs><linearGradient id="SvgjsLinearGradient1004" gradientTransform="rotate(314, 0.5, 0.5)"><stop stop-color="hsl(248, 71%, 68%)" offset="0"></stop><stop stop-color="hsl(259, 47%, 10%)" offset="1"></stop></linearGradient></defs></svg>