<svg xmlns="http://www.w3.org/2000/svg" version="1.1" xmlns:xlink="http://www.w3.org/1999/xlink" xmlns:svgjs="http://svgjs.dev/svgjs" viewBox="0 0 600 600" opacity="0.22"><path d="M-0.1852764693479685 511.7932169816271C-80.68265577232648 130.24870963706326 -92.33187369580874 446.871752697366 -22.96014638817121 94.77751568768178C46.41158091946632 -257.3167213220024 -70.73501185651432 110.87699027671172 83.06079629981707 89.280132570006C236.8566044561485 67.68327486330028 4.526761570813164 114.01835183117544 161.59482339942645 68.86128643963491C318.6628852280397 23.704221048094382 134.7623674464642 50.7984602830187 271.542470494153 35.09165410015737C408.32257354184185 19.384847917296042 266.1759696396608 2.8926988821601327 325.730947056653 50.013119020201316C385.2859244736452 97.1335391582425 355.4429831894655 34.04453559531525 343.00844339454363 91.63615826580678C330.57390359962176 149.2277809362983 386.07128926042907 77.89269920005158 310.80949930274676 119.12306622479116C235.54770934506445 160.35343324953072 361.33304615740167 99.8822316707547 252.69429544532488 141.11259869549428C144.05554473324807 182.34296572023385 277.95608285987566 141.76705324464794 180.44299844825457 168.59950665447866C82.92991403663348 195.43196006430938 232.53723545793878 162.8403386653836 135.67859415137957 173.31154278729116C38.819952844820335 183.78274690919872 161.07126382911395 173.31154533042266 64.21262888038348 181.16495160076772C-32.64600606834699 189.01835787111278 54.78854771379818 152.63091687176382 19.448232212903008 182.73563031170522C-15.892083287992172 212.84034375164663 4.134095707776055 174.7513417781766 21.804250279309258 217.2906077286974C39.47440485084246 259.8298736792182 -23.48370595848371 212.84034120851513 40.65241769874285 233.78274945233022C104.78854135596941 254.72515769614532 -26.232407689847633 217.5523926001167 98.76759866798113 242.42149762127553C223.7676050258099 267.2906026424344 31.621002395194665 227.63091687176382 190.65242532813738 263.62567547772085C349.68384826108013 299.6204340836779 165.259755650403 255.510481792825 289.6053061875124 285.615207948424C413.95085672462176 315.7199341040229 239.73619099382745 287.3167816382026 339.86708597266863 299.7513468644396C439.9979809515098 312.1859120906766 359.36972065691344 259.9607686580594 409.76238016212176 300.53668621990835C460.1550396673301 341.1126037817573 432.40635192318945 286.9241221329943 400.33827737891863 348.44244793865835C368.2702028346478 409.9607737443224 436.72571329200457 340.9817291479682 371.28069070899676 374.3586771867052C305.83566812598895 407.7356252254422 431.0974377386192 378.0235941788927 321.80425027930926 388.4947855851427C212.51106281999935 398.9659769913927 401.1236243637819 398.7041972062365 240.12886575782488 386.9241068742052C79.13410715186785 375.144016542174 273.8985050909141 393.33773704184847 128.61053995216082 374.3586771867052C-16.677425186592444 355.379617331562 158.7152489416221 385.7460927547391 65.78330759132098 364.14923504803335C-27.14863375898014 342.5523773413276 74.02938194994321 330.77228700929635 17.092210331799492 348.44244793865835C-39.84496128634423 366.11260886802035 21.018910923840508 334.3063191951688 -2.541298350451484 385.3534281632677C-26.101507624743476 436.40053713136666 -30.81354852592756 344.2539561173693 -11.180040797350898 409.6989787003771C8.453466931225762 475.1440012833849 -41.808313807604804 418.7303914607938 21.018910923840508 463.8874552628771C83.84613565528582 509.0445190649604 -28.719309291003242 463.8874552628771 64.21262888038348 463.8874552628771C157.1445670517702 463.8874552628771 29.78855025692971 448.8350921850776 132.53723672950457 463.8874552628771C235.2859232020794 478.9398183406766 135.15503203793554 432.2120809139188 187.51105264747332 481.9502909562365C239.8670732570111 531.6885009985538 227.43252328956316 462.0549815079943 195.36446146094988 523.573307313658C163.2963996323366 585.0916331193221 250.46917235775982 531.5576009334495 149.02937845313738 555.772281923033C47.58958454851498 579.9869629126163 197.9822545441408 589.2801452856631 73.63670877540301 552.630924501158C-50.708836993334785 515.9817037166526 80.31210283363055 893.3377243261905 -0.1852764693479685 511.7932169816271C-80.68265577232648 130.24870963706326 -92.33187369580874 446.871752697366 -22.96014638817121 94.77751568768178 " fill="url(&quot;#SvgjsLinearGradient1010&quot;)" transform="matrix(1.047375,0,0,1.047375,-10.562255349159244,-12.878957769393935)" stroke-width="1" stroke="hsl(236, 73%, 63%)" stroke-opacity="0.57" fill-opacity="1"></path><defs><linearGradient id="SvgjsLinearGradient1010" gradientTransform="rotate(170, 0.5, 0.5)"><stop stop-color="hsl(259, 47%, 10%)" offset="0"></stop><stop stop-color="hsl(248, 71%, 68%)" offset="1"></stop></linearGradient></defs></svg>