<svg xmlns="http://www.w3.org/2000/svg" version="1.1" xmlns:xlink="http://www.w3.org/1999/xlink" xmlns:svgjs="http://svgjs.dev/svgjs" viewBox="0 0 600 600" opacity="0.24"><path d="M-20.41884415312063 332.98429479524196C-30.235598335300402 324.08377192740335 -25.916226317122096 299.86911891226663 -26.701566626265162 277.22513952180446C-27.48690693540823 254.5811601313422 -25.654446214074405 226.83246221467545 -25.13088600797903 197.1204184524684C-24.60732580188365 167.40837469026138 -23.821985492740584 127.09423818513442 -23.560205389692896 98.95287694856222C-23.29842528664521 70.81151571198995 -23.560205389692896 50.26177953009501 -23.560205389692896 28.272251033034877C-23.560205389692896 6.282722535974742 -38.612560997043566 -22.382199701421506 -23.560205389692896 -32.98429403379862C-8.507849782342227 -43.58638836617573 42.27748893734365 -34.816754755132436 66.75392825441111 -35.34031496122782C91.23036757147857 -35.8638751673232 108.11518390016306 -37.04188563103779 123.29843051271189 -36.125655270370885C138.48167712526072 -35.20942490970397 145.54974276857126 -36.12565511142516 157.85340792970408 -29.842932797226354C170.1570730908369 -23.560210483027543 188.21989861167023 -11.38743648603861 197.12042147950876 1.5706786148219862C206.0209443473473 14.528793715682582 209.81675377524445 34.42408170625265 211.25654513673533 47.90575780793722C212.6963364982262 61.38743390962179 211.64922244386423 70.94240941926535 205.75916964845408 82.46073522492941C199.86911685304392 93.97906103059347 190.18324445721058 106.15183884227966 175.9162283642744 117.01571264192154C161.6492122713382 127.8795864415635 135.99476789471058 136.780104223139 120.15707309083689 147.6439780227809C104.3193782869632 158.50785182242288 88.35079231894561 168.84816859488382 80.8900595410322 182.1989554397731C73.4293267631188 195.54974228466244 73.16754570639678 214.2670248977809 75.39267642335642 227.74869909211685C77.61780714031606 241.23037328645285 94.76440468466826 249.0837668411404 94.24084384279001 263.08900060578884C93.71728300091176 277.0942343704373 82.59162560141631 300.5235556594998 72.25131137208689 311.7801016800076C61.910997142757466 323.0366477005154 47.64398438768137 327.0942445429633 32.19895846681345 330.6282767288357C16.75393254594553 334.16230891470803 -10.60208997094086 341.88481766308047 -20.41884415312063 332.98429479524196C-30.235598335300402 324.08377192740335 -25.916226317122096 299.86911891226663 -26.701566626265162 277.22513952180446 " fill="url(&quot;#SvgjsLinearGradient1024&quot;)" stroke-width="1" stroke="hsl(236, 73%, 63%)" stroke-opacity="0.68"></path><path d="M85.60208475401896 272.513103284142C75.78533057183915 263.61258041630344 80.1047025900175 239.39792740116673 79.31936228087443 216.7539480107045C78.53402197173136 194.10996862024228 80.36648269306522 166.3612707035756 80.89004289916056 136.64922694136857C81.41360310525596 106.93718317916154 82.19894341439903 66.62304667403458 82.4607235174467 38.48168543746232C82.72250362049436 10.340324200890052 82.4607235174467 -10.209411981004891 82.4607235174467 -32.198940478065026C82.4607235174467 -54.18846897512516 67.40836791009599 -82.85339121252142 82.4607235174467 -93.45548554489852C97.5130791247974 -104.05757987727563 148.29841784448325 -95.28794626623234 172.7748571615507 -95.81150647232772C197.25129647861814 -96.3350666784231 214.13611280730265 -97.51307714213769 229.31935941985148 -96.59684678147079C244.5026060324003 -95.68061642080387 251.57067167571086 -96.59684662252506 263.87433683684367 -90.31412430832626C276.1780019979765 -84.03140199412745 294.24082751880985 -71.85862799713851 303.14135038664836 -58.90051289627792C312.04187325448686 -45.94239779541732 315.83768268238407 -26.047109804847253 317.2774740438749 -12.565433703162682C318.71726540536577 0.9162423985218879 317.6701513510038 10.471217908165443 311.78009855559367 21.989543713829505C305.8900457601835 33.50786951949357 296.20417336435014 45.680647331179756 281.937157271414 56.54452113082169C267.6701411784778 67.40839493046363 242.01569680185014 76.30891271203913 226.17800199797648 87.17278651168107C210.34030719410282 98.036660311323 194.37172122608519 108.37697708378394 186.9109884481718 121.72776392867326C179.4502556702584 135.0785507735626 179.18847461353636 153.79583338668107 181.413605330496 167.277507581017C183.63873604745567 180.75918177535294 200.78533359180784 188.61257533004044 200.2617727499296 202.61780909468888C199.73821190805137 216.62304285933732 188.6125545085559 240.05236414839982 178.27224027922648 251.30891016890763C167.93192604989707 262.56545618941544 153.66491329482096 266.6230530318634 138.21988737395304 270.15708521773576C122.77486145308512 273.69111740360813 95.41883893619877 281.41362615198057 85.60208475401896 272.513103284142C75.78533057183915 263.61258041630344 80.1047025900175 239.39792740116673 79.31936228087443 216.7539480107045 " fill-opacity="1" fill="url(&quot;#SvgjsLinearGradient1023&quot;)" opacity="1" stroke-opacity="1" stroke-width="1" stroke="hsl(236, 73%, 63%)" transform="matrix(-1.000000000000001,3.3306690738754696e-16,3.3306690738754696e-16,1.000000000000001,756.0601654052737,326.3088455200193)"></path><defs><linearGradient id="SvgjsLinearGradient1023" gradientTransform="rotate(173, 0.5, 0.5)"><stop stop-color="hsl(259, 47%, 10%)" offset="0"></stop><stop stop-color="hsl(248, 71%, 68%)" offset="1"></stop></linearGradient><linearGradient id="SvgjsLinearGradient1024" gradientTransform="rotate(210, 0.5, 0.5)"><stop stop-color="hsl(259, 47%, 10%)" offset="0"></stop><stop stop-color="hsl(248, 71%, 68%)" offset="1"></stop></linearGradient></defs></svg>