<svg xmlns="http://www.w3.org/2000/svg" version="1.1" xmlns:xlink="http://www.w3.org/1999/xlink" xmlns:svgjs="http://svgjs.dev/svgjs" viewBox="0 25 250 175" ><path d="M15.706806182861328,117.01570892333984C5.1047121683756504,82.8534049987793,3.4031403859456404,18.062828063964844,50.26177978515625,18.848167419433594C97.12041918436685,19.633506774902344,222.25131225585938,120.28795433044434,296.858642578125,121.72774505615234C371.4659729003906,123.16753578186035,453.66492716471356,28.01047134399414,497.90576171875,27.48691177368164C542.1465962727865,26.96335220336914,552.7486775716146,63.21989758809408,562.3036499023438,118.58638763427734C571.8586222330729,173.9528776804606,569.7643890380859,303.40313084920246,555.235595703125,359.68585205078125C540.7068023681641,415.96857325236004,504.97382100423175,443.71726989746094,475.1308898925781,456.28271484375C445.2879587809245,468.84815979003906,405.7591603597005,450.13087463378906,376.1780090332031,435.0785217285156C346.59685770670575,420.0261688232422,318.3246103922526,364.1361338297526,297.64398193359375,365.9685974121094C276.9633534749349,367.8010609944661,284.5549723307292,414.0052439371745,252.09423828125,446.07330322265625C219.63350423177084,478.141362508138,142.40837303797403,561.5183156331381,102.87957763671875,558.376953125C63.35078223546346,555.2355906168619,13.089004834493002,482.9842885335286,14.921465873718262,427.2251281738281C16.753926912943523,371.4659678141276,113.74345382054646,275.52356084187824,113.87434387207031,223.82199096679688C114.00523392359416,172.12042109171549,26.308900197347008,151.1780128479004,15.706806182861328,117.01570892333984C5.1047121683756504,82.8534049987793,3.4031403859456404,18.062828063964844,50.26177978515625,18.848167419433594" fill="hsl(259, 43%, 16%)"></path></svg>