<svg xmlns="http://www.w3.org/2000/svg" version="1.1" xmlns:xlink="http://www.w3.org/1999/xlink" xmlns:svgjs="http://svgjs.dev/svgjs" viewBox="0 25 80 100"><path d="M4.319371700286865,595.2879638671875C0.2617800235748291,510.0785382588704,-7.722512483596802,167.67015584309894,3.534031391143799,83.2460708618164C14.7905752658844,-1.178014119466141,39.79057129224142,89.79057439168294,71.85863494873047,88.74345397949219C103.92669860521951,87.69633356730144,164.13612747192383,82.72251065572102,195.94241333007812,76.96334838867188C227.74869918823242,71.20418612162273,243.84818522135416,60.86387252807617,262.69635009765625,54.188480377197266C281.5445149739583,47.51308822631836,296.46595764160156,39.005236307779946,309.0314025878906,36.91099548339844C321.5968475341797,34.81675465901693,338.6125793457031,31.15183130900065,338.0890197753906,41.6230354309082C337.5654602050781,52.09423955281576,316.62303161621094,84.16230328877766,305.8900451660156,99.73822021484375C295.1570587158203,115.31413714090984,287.56544494628906,121.33508046468098,273.69110107421875,135.0785369873047C259.81675720214844,148.82199350992838,237.1727778116862,169.37173461914062,222.64398193359375,182.19895935058594C208.1151860555013,195.02618408203125,196.72775014241537,203.40314229329428,186.51832580566406,212.04188537597656C176.30890146891275,220.68062845865884,165.57591756184897,226.57068634033203,161.38743591308594,234.0314178466797C157.1989542643229,241.49214935302734,135.7329839070638,248.5602035522461,161.38743591308594,256.8062744140625C187.04188791910806,265.0523452758789,303.2722625732422,280.7591501871745,315.31414794921875,283.5078430175781C327.3560333251953,286.25653584798175,227.74869791666666,273.16754150390625,233.6387481689453,273.2984313964844C239.52879842122397,273.4293212890625,324.34554799397785,283.11517333984375,350.6544494628906,284.2931823730469C376.9633509318034,285.47119140625,376.1780192057292,282.8533935546875,391.4921569824219,280.3664855957031C406.80629475911456,277.87957763671875,429.05760192871094,264.79058329264325,442.5392761230469,269.3717346191406C456.0209503173828,273.952885945638,470.02618408203125,295.1570587158203,472.3822021484375,307.8533935546875C474.73822021484375,320.5497283935547,463.7434488932292,333.76963806152344,456.6753845214844,345.54974365234375C449.60732014973956,357.32984924316406,438.48166910807294,370.0261739095052,429.97381591796875,378.5340270996094C421.46596272786456,387.04188028971356,418.71726989746094,389.2670186360677,405.6282653808594,396.59686279296875C392.5392608642578,403.9267069498698,367.5392659505208,416.2303721110026,351.4397888183594,422.5130920410156C335.34031168619794,428.7958119710286,328.9266891479492,428.6649119059245,309.0314025878906,434.2931823730469C289.13611602783203,439.92145284016925,250.26178487141928,451.3088887532552,232.0680694580078,456.28271484375C213.87435404459634,461.2565409342448,208.90052541097006,457.85341389973956,199.86911010742188,464.1361389160156C190.8376948038737,470.4188639322917,185.3403116861979,482.9842987060547,177.87957763671875,493.97906494140625C170.4188435872396,504.9738311767578,161.78009796142578,519.7644246419271,155.10470581054688,530.104736328125C148.42931365966797,540.4450480143229,146.2041867574056,548.4293111165365,137.8272247314453,556.0209350585938C129.45026270548502,563.612559000651,115.44502766927083,570.1570943196615,104.84293365478516,575.6544799804688C94.24083964029948,581.151865641276,87.04188601175944,585.8638916015625,74.21466064453125,589.0052490234375C61.38743527730306,592.1466064453125,39.52879627545675,593.4555053710938,27.879581451416016,594.5026245117188C16.230366627375282,595.5497436523438,8.376963376998901,680.4973894755045,4.319371700286865,595.2879638671875C0.2617800235748291,510.0785382588704,-7.722512483596802,167.67015584309894,3.534031391143799,83.2460708618164" fill="hsl(213, 33%, 16%)"></path></svg>